<svg xmlns="http://www.w3.org/2000/svg" xmlns:xlink="http://www.w3.org/1999/xlink" viewBox="0 0 410 220">
  <text x="100" y="30" fill="grey" style="font-size: 10px;">HoneyWeb.Org</text>
  <path  fill="grey" d="M100 50 l0 140 l80 0 l0 -140 l-80 0"/>
  <path  fill="#EEEEEE" d="M105 55 l0 130 l70 0 l0 -130 l-70 0"/>
  <text x="114" y="80" fill="grey" style="font-size: 10px;">Application</text>
  <path stroke="grey" d="M170 100 L290 100"/>
  <text x="190" y="96" fill="grey" style="font-size: 10px;">https</text>
  <text x="190" y="110" fill="grey" style="font-size: 10px;">json data / file upload</text>
  <path stroke="grey" d="M170 150 L290 150"/>
  <text x="190" y="146" fill="grey" style="font-size: 10px;">wss</text>
  <text x="190" y="160" fill="grey" style="font-size: 10px;">chat msg (json)</text>
  <path stroke="grey" d="M110 180 L10 200"/>
  <text x="10" y="196" fill="grey" transform="rotate(-11 10,196)" style="font-size: 10px;">chat messages</text>
  <path stroke="grey" d="M110 155 L10 170"/>
  <text x="10" y="166" fill="grey" transform="rotate(-9 10,166)" style="font-size: 10px;">push notifications</text>
  <path stroke="grey" d="M110 130 L10 140"/>
  <text x="10" y="136" fill="grey" transform="rotate(-6 10,136)" style="font-size: 10px;">email@domain.tld</text>
  <path stroke="grey" d="M110 105 L10 110"/>
  <text x="10" y="106" fill="grey" transform="rotate(-3 10,106)" style="font-size: 10px;">file store and server</text>
  <path stroke="grey" d="M110 80 L10 80"/>
  <text x="10" y="76" fill="grey" transform="rotate(0 10,76)" style="font-size: 10px;">json (Api endpoint)</text>
  <text x="10" y="30" fill="grey" style="font-size: 10px;">To your clients</text>
  <path stroke="grey" d="M250 10 L250 210"/>
  <text x="270" y="30" fill="grey" style="font-size: 10px;">Your Front End Appplication</text>
  <path  fill="grey" d="M300 60 l0 50 q0 10 10 10 l10 0 q10 0 10 -10 l0 -50 q0 -10 -10 -10 l-10 0 q-10 0 -10 10"/>
  <path  fill="#EEEEEE" d="M305 60 l0 50 l20 0 l0 -50 l-20 0"/>
  <path  fill="#EEEEEE" d="M310 55 q-1 1 0 2 l10 0 q1 -1 0 -2 l-10 0"/>
  <circle cx="315" fill="#EEEEEE" cy="115" r="2" />
  <path  fill="grey" d="M300 150 l0 30 q0 10 10 10 l50 0 q10 0 10 -10 l0 -30 q0 -10 -10 -10 l-50 0 q-10 0 -10 10"/>
  <path  fill="#EEEEEE" d="M305 145 l0 35 l60 0 l0 -35 l-60 0"/>
  <path  fill="grey" d="M323 186 l-3 10 l30 0 l-3 -10 l-30 0"/>
  <path  fill="grey" d="M340 60 l0 50 q0 10 10 10 l30 0 q10 0 10 -10 l0 -50 q0 -10 -10 -10 l-30 0 q-10 0 -10 10"/>
  <path  fill="#EEEEEE" d="M345 60 l0 50 l40 0 l0 -50 l-40 0"/>
  <path  fill="#EEEEEE" d="M360 55 q-1 1 0 2 l10 0 q1 -1 0 -2 l-10 0"/>
  <circle cx="365" fill="#EEEEEE" cy="115" r="2" />
</svg>