<svg xmlns="http://www.w3.org/2000/svg" xmlns:xlink="http://www.w3.org/1999/xlink" fill="grey" viewBox="0 0 410 220">
  <text x="20" y="20" fill="grey" style="font-size: 10px;">HoneyWeb.Org</text>
  <path stroke="grey" d="M50 30 L50 210 Z"/>
  <text x="280" y="20" fill="grey" style="font-size: 10px;">Your digital downloads App</text>
  <path stroke="grey" d="M360 30 l0 50 Z"/>
  <text x="320" y="110" fill="grey" style="font-size: 10px;">Your software</text>
  <path stroke="grey" d="M360 120 l0 90 Z"/>
  <text x="70" y="46" fill="grey" style="font-size: 10px;">Request for license key and serial number</text>
  <path stroke="grey" d="M360 50 l-310 0 l10 5 l0 -10 l-10 5 Z"/>
  <text x="70" y="66" fill="grey" style="font-size: 10px;">Grants license key and serial number. Give it your client</text>
  <path stroke="grey" d="M50 70 l310 0 l-10 -5 l0 10 l10 -5 Z"/>
  <text x="70" y="126" fill="grey" style="font-size: 10px;">client uses license key and serial number to activate license</text>
  <path stroke="grey" d="M360 130 l-310 0 l10 5 l0 -10 l-10 5 Z"/>
  <text x="70" y="146" fill="grey" style="font-size: 10px;">client gets acknowledgement for activation</text>
  <path stroke="grey" d="M50 150 l310 0 l-10 -5 l0 10 l10 -5 Z"/>
  <text x="70" y="186" fill="grey" style="font-size: 10px;">client uses license key and serial number to de-activate license</text>
  <path stroke="grey" d="M360 190 l-310 0 l10 5 l0 -10 l-10 5 Z"/>
  <text x="70" y="206" fill="grey" style="font-size: 10px;">client gets acknowledgement for de-activation</text>
  <path stroke="grey" d="M50 210 l310 0 l-10 -5 l0 10 l10 -5 Z"/>
</svg>